<svg width="348" height="269" viewBox="0 0 348 269" fill="none" xmlns="http://www.w3.org/2000/svg">
<path d="M307.87 0H52.9179V119.284H307.87V0Z" fill="#E6E6E6"/>
<path d="M311.711 0H54.7126V119.284H311.711V0Z" fill="#F0F0F0"/>
<path d="M307.87 119.285H52.9179V125.37H307.87V119.285Z" fill="#E6E6E6"/>
<path d="M318.109 119.285H61.1111V125.37H318.109V119.285Z" fill="#F0F0F0"/>
<path d="M306.333 113.908V5.37744L60.0895 5.37744L60.0895 113.908L306.333 113.908Z" fill="#FAFAFA"/>
<path d="M86.5115 113.908L101.477 5.37793H124.831L109.865 113.908H86.5115Z" fill="white"/>
<path d="M62.5791 108.555C62.3668 108.555 62.1946 108.383 62.1946 108.171V8.87567C62.1946 8.66334 62.3668 8.49121 62.5791 8.49121C62.7914 8.49121 62.9636 8.66334 62.9636 8.87567V108.172C62.9636 108.383 62.7914 108.555 62.5791 108.555Z" fill="#F0F0F0"/>
<path d="M114.882 113.908L129.848 5.37793H138.952L123.986 113.908H114.882Z" fill="white"/>
<path d="M306.334 113.908V5.37744H305.651V113.908H306.334Z" fill="#E6E6E6"/>
<path opacity="0.6" d="M312.982 13.4849H58.0303L57.5357 7.46729H312.488L312.982 13.4849Z" fill="#EBEBEB"/>
<path opacity="0.6" d="M312.982 23.3535H58.0303L57.5357 17.3359H312.488L312.982 23.3535Z" fill="#EBEBEB"/>
<path opacity="0.6" d="M312.982 33.2232H58.0303L57.5357 27.2056H312.488L312.982 33.2232Z" fill="#EBEBEB"/>
<path opacity="0.6" d="M312.982 43.0923H58.0303L57.5357 37.0747H312.488L312.982 43.0923Z" fill="#EBEBEB"/>
<path opacity="0.6" d="M312.982 52.9614H58.0303L57.5357 46.9438H312.488L312.982 52.9614Z" fill="#EBEBEB"/>
<path opacity="0.6" d="M312.982 62.8306H58.0303L57.5357 56.813H312.488L312.982 62.8306Z" fill="#EBEBEB"/>
<path d="M348 149.271H309.091V267.578H348V149.271Z" fill="#E6E6E6"/>
<path d="M337.61 267.578H348V251.246H326.717L337.61 267.578Z" fill="#FAFAFA"/>
<path d="M241.913 149.271H203.004V267.578H241.913V149.271Z" fill="#E6E6E6"/>
<path d="M348 149.271H232.846V261.957H348V149.271Z" fill="#FAFAFA"/>
<path d="M243.235 267.578H232.846V251.246H254.129L243.235 267.578Z" fill="#FAFAFA"/>
<path d="M339.94 191.262H240.906V219.462H339.94V191.262Z" fill="#F0F0F0"/>
<path d="M339.94 225.489H240.906V253.689H339.94V225.489Z" fill="#F0F0F0"/>
<path d="M320.295 194.277H260.551C258.295 194.277 256.467 192.448 256.467 190.193V188.819H324.38V190.193C324.379 192.448 322.55 194.277 320.295 194.277Z" fill="#FAFAFA"/>
<path d="M339.94 157.033H240.906V185.233H339.94V157.033Z" fill="#F0F0F0"/>
<path d="M320.295 160.049H260.551C258.295 160.049 256.467 158.22 256.467 155.965V154.591H324.38V155.965C324.379 158.22 322.55 160.049 320.295 160.049Z" fill="#FAFAFA"/>
<path d="M320.295 228.504H260.551C258.295 228.504 256.467 226.675 256.467 224.42V223.046H324.38V224.42C324.379 226.675 322.55 228.504 320.295 228.504Z" fill="#FAFAFA"/>
<path d="M11.0917 174.494C13.2595 168.271 30.3521 176.733 37.288 187.046C41.9076 193.914 44.7298 201.245 46.0475 211.093C45.8893 199.857 45.7102 187.784 45.5346 176.391C44.1322 173.55 40.929 167.001 38.6249 161.81C30.9375 144.494 12.6583 138.046 6.34366 127.112C-1.93088 112.787 -1.88282 91.2977 5.16059 83.5431C11.2822 76.8046 31.5526 122.37 33.8358 127.46C41.6891 144.97 43.9723 157.964 45.4437 170.552C45.2759 159.851 45.116 150.027 44.9841 142.446C44.5551 117.72 44.0186 109.767 43.7731 107.32C42.9264 106.125 41.9277 104.732 41.3466 103.985C36.4413 97.6692 25.5568 90.1513 20.1177 80.9707C12.1752 67.5663 13.4587 51.5231 19.0298 45.5492C24.8543 39.3027 35.1516 54.0658 40.6188 68.6935C46.0859 83.3211 43.7495 97.3214 45.2829 109.469C45.6036 111.852 45.933 120.902 46.2423 133.455C47.9007 119.948 51.2044 110.9 57.3269 102.468C64.857 92.0972 71.3578 79.4678 77.5624 81.1C83.767 82.7322 80.4274 99.4429 75.5186 111.174C71.1472 121.622 49.5827 132.042 46.4048 140.442C46.7788 157.457 47.1135 179.014 47.3503 199.084C49.0506 188.717 47.8815 187.847 54.848 171.975C58.9897 162.539 75.9695 150.902 77.9949 157.386C79.9818 163.748 76.942 176.122 70.5321 184.704C65.3611 191.627 53.8878 191.619 51.2324 195.914C50.6129 196.916 48.5648 200.758 47.3948 202.967C47.6718 227.47 47.7959 249.099 47.6587 256.474L46.5455 256.548C46.5988 254.644 46.4643 242.179 46.2458 225.684C43.4603 216.907 24.7041 211.784 18.9101 202.656C12.8488 193.105 8.49137 181.959 11.0917 174.494Z" fill="#E6E6E6"/>
<path d="M28.7278 267.577H64.7268C66.6937 267.577 68.3888 266.191 68.7793 264.264L71.3351 251.665H22.1195L24.6753 264.264C25.0658 266.192 26.7609 267.577 28.7278 267.577Z" fill="#F0F0F0"/>
<path d="M21.0902 256.549H72.3643C73.5929 256.549 74.6256 255.627 74.7628 254.405L75.8113 245.091C75.9721 243.66 74.8528 242.407 73.4129 242.407H20.0416C18.6017 242.407 17.4815 243.66 17.6432 245.091L18.6917 254.405C18.8289 255.627 19.8616 256.549 21.0902 256.549Z" fill="#F0F0F0"/>
<path d="M119.808 210.976H89.0453V267.578H119.808V210.976Z" fill="#E0E0E0"/>
<path d="M198.219 267.577H95.2071L84.3864 190.776H187.398L198.219 267.577Z" fill="#E6E6E6"/>
<path d="M213.246 267.577H99.3007L88.48 190.776H202.426L213.246 267.577Z" fill="#F0F0F0"/>
<path d="M110.454 255.571L101.339 202.781H191.272L200.387 255.571H110.454Z" fill="white"/>
<path d="M149.096 255.571L118.528 202.781H128.118L158.687 255.571H149.096Z" fill="#FAFAFA"/>
<path d="M162.752 255.571L132.183 202.781H148.536L179.105 255.571H162.752Z" fill="#FAFAFA"/>
<g clip-path="url(#clip0_12_227)">
<path d="M280.099 116.35L267.842 120.755L268.882 106.925L277.383 106.033C276.712 109.544 277.696 112.979 280.099 116.35Z" fill="#FFB8B8"/>
<path d="M313.123 263.477L308.509 264.976L301.099 249.64L307.909 247.427L313.123 263.477Z" fill="#FFB9B9"/>
<path d="M296.242 268.392C296.232 268.881 296.305 269.369 296.457 269.834C296.597 270.269 296.905 270.63 297.312 270.838C297.719 271.047 298.192 271.085 298.627 270.944L313.56 266.092C313.707 266.044 313.843 265.967 313.96 265.867C314.077 265.766 314.174 265.644 314.243 265.506C314.313 265.368 314.355 265.218 314.367 265.064C314.379 264.91 314.361 264.756 314.313 264.609L314.11 263.985C314.11 263.985 314.24 261.871 311.968 260.054C311.968 260.054 310.665 262.477 306.92 260.561L305.594 259.318L301.003 265.701L297.795 267.198C297.093 267.526 296.411 267.632 296.241 268.39L296.242 268.392Z" fill="#090814"/>
<path d="M268.628 268.005H263.29L260.751 251.129H268.629L268.628 268.005Z" fill="#FFB9B9"/>
<path d="M250.17 267.462C250.002 267.923 249.917 268.409 249.917 268.9C249.927 269.368 250.123 269.813 250.461 270.136C250.799 270.46 251.252 270.636 251.72 270.626H268.171C268.491 270.633 268.8 270.513 269.031 270.292C269.261 270.071 269.395 269.768 269.402 269.448V268.793C269.402 268.793 270.216 266.821 268.54 264.391C268.54 264.391 266.458 266.294 263.346 263.314L262.428 261.722L255.786 266.374L252.104 266.807C251.298 266.902 250.584 266.792 250.17 267.46V267.462Z" fill="#090814"/>
<path d="M258.109 162.407L254.217 170.576L260.83 255.378H269.1L272.5 199.751L302.18 255.378H312.325L297.006 215.699L286.505 163.963L258.109 162.407Z" fill="#090814"/>
<path d="M278.352 111.145L268.075 111.81L264.919 115.921L256.433 119.979L258.278 145.435L257.352 163.996L258.621 163.959C267.676 163.648 276.699 165.21 285.122 168.549C287.277 169.417 289.537 169.901 291.482 169.414C291.482 169.414 290.744 166.462 290.006 165.725C289.268 164.987 288.899 164.377 289.268 163.944C289.638 163.511 290.375 163.142 289.637 162.404C289.196 161.957 288.933 161.364 288.9 160.737L286.686 144.327L291.113 121.084L281.89 115.919L278.352 111.145Z" fill="#407BFF"/>
<path d="M296.563 142.201L296.284 163.972L290.867 183.38L286.536 181.764L288.459 163.975L288.206 139.902L296.563 142.201Z" fill="#FFB9B9"/>
<path d="M290.849 186.509C291.357 183.718 290.426 181.211 288.769 180.91C287.112 180.608 285.357 182.626 284.848 185.416C284.34 188.207 285.272 190.714 286.929 191.016C288.586 191.317 290.341 189.3 290.849 186.509Z" fill="#FFB9B9"/>
<path d="M288.898 119.979C288.898 119.979 295.01 120.926 295.09 126.171C295.17 131.416 301.073 139.902 297.385 146.543L287.793 148.018L282.628 129.203" fill="#407BFF"/>
<path d="M261 138.367L248.82 156.414L233.642 169.666L230.908 165.941L242.277 152.124L255.275 131.86L261 138.367Z" fill="#FFB9B9"/>
<path d="M231.909 172.275C233.866 170.221 234.465 167.614 233.245 166.452C232.026 165.29 229.451 166.013 227.494 168.066C225.536 170.12 224.938 172.727 226.158 173.889C227.377 175.051 229.952 174.328 231.909 172.275Z" fill="#FFB9B9"/>
<path d="M266.786 115.584C266.786 115.584 271.376 119.729 268.565 124.158C265.753 128.587 266.032 138.92 259.303 142.447L250.475 138.417C251.218 131.141 251.652 123.598 256.481 119.853L266.882 114.764" fill="#407BFF"/>
<path d="M272.217 108.499C277.286 108.499 281.395 104.389 281.395 99.3204C281.395 94.2514 277.286 90.1421 272.217 90.1421C267.148 90.1421 263.038 94.2514 263.038 99.3204C263.038 104.389 267.148 108.499 272.217 108.499Z" fill="#FFB9B9"/>
<path d="M278.957 106.861C279.463 106.947 280.055 105.722 280.624 104.528C281.811 102.03 282.566 100.442 282.623 98.1966C282.672 96.2831 282.141 96.7853 281.624 92.5314C281.453 91.1285 279.056 91.1312 278.568 90.465C277.744 89.3395 279.009 88.8755 276.958 88.1994C273.118 86.9332 271.381 88.9002 268.943 89.0698C268.881 89.0741 267.672 90.2565 266.997 90.3177C265.814 90.4248 264.107 90.2405 263.342 88.4382C262.626 86.7529 262.152 91.6777 262.792 92.2873C263.352 92.8757 263.855 93.5154 264.295 94.1981C264.322 94.3048 262.067 91.8084 261.692 92.8371C261.422 93.5775 262.274 97.3873 262.963 97.5304C263.538 97.6501 264.946 95.7523 264.629 96.5306C263.892 98.3356 268.322 99.4874 273.626 95.8654C273.814 95.737 273.637 95.9419 274.291 97.5317C275.119 99.5366 275.306 99.6453 275.291 100.197C275.26 101.393 274.362 101.745 274.626 102.53C274.757 102.855 274.991 103.129 275.292 103.309C275.592 103.489 275.944 103.567 276.292 103.53C276.996 103.385 277.116 102.515 277.625 102.53C278.061 102.544 278.579 103.2 278.625 103.863C278.722 105.26 276.655 105.644 276.292 107.529C276.088 108.593 278.494 106.783 278.958 106.864L278.957 106.861Z" fill="#090814"/>
<path d="M206.3 271.044H127.436C121.748 271.038 116.295 268.776 112.273 264.754C108.252 260.732 105.989 255.28 105.983 249.592V41.1112C105.989 35.4236 108.252 29.9707 112.273 25.949C116.295 21.9272 121.748 19.665 127.436 19.6587H206.3C211.987 19.665 217.44 21.9272 221.462 25.949C225.484 29.9707 227.746 35.4236 227.752 41.1112C229.22 124.831 231.724 218.585 227.752 249.593C227.746 255.28 225.484 260.733 221.462 264.754C217.44 268.776 211.987 271.038 206.3 271.044Z" fill="#090814"/>
<path d="M228.851 96.3447C228.61 96.3449 228.379 96.4406 228.209 96.6108C228.039 96.7809 227.943 97.0117 227.943 97.2524V126.293C227.941 126.414 227.962 126.534 228.007 126.646C228.052 126.758 228.118 126.86 228.202 126.946C228.287 127.033 228.388 127.101 228.499 127.148C228.61 127.194 228.73 127.218 228.85 127.218C228.971 127.218 229.091 127.194 229.202 127.148C229.313 127.101 229.414 127.033 229.498 126.946C229.583 126.86 229.649 126.758 229.694 126.646C229.738 126.534 229.76 126.414 229.758 126.293V97.2524C229.758 97.0118 229.662 96.7811 229.492 96.6109C229.322 96.4407 229.091 96.345 228.851 96.3447Z" fill="#090814"/>
<path d="M225.71 41.1111V249.588C225.71 254.518 223.835 259.262 220.465 262.86C217.095 266.457 212.483 268.638 207.564 268.96H207.559C207.41 268.969 207.26 268.978 207.106 268.982C206.84 268.996 206.57 269 206.298 269C206.298 269 205.3 268.928 203.476 268.792C201.634 268.656 198.952 268.451 195.608 268.184C194.605 268.106 193.546 268.022 192.431 267.929C190.208 267.748 187.767 267.548 185.147 267.322C184.104 267.235 183.024 267.14 181.921 267.045C176.285 266.559 169.974 265.992 163.317 265.349C162.191 265.244 161.057 265.135 159.914 265.022C159.614 264.989 108.025 252.022 108.025 249.589V41.1111C108.025 38.5617 108.527 36.0372 109.502 33.6819C110.478 31.3265 111.907 29.1864 113.71 27.3838C115.513 25.5811 117.653 24.1512 120.008 23.1758C122.364 22.2003 124.888 21.6984 127.438 21.6987H139.028C139.917 21.7068 140.771 22.0498 141.42 22.6594C142.068 23.269 142.463 24.1005 142.525 24.9881C142.539 25.1105 142.552 25.2332 142.575 25.3556C142.76 26.2555 143.253 27.0626 143.97 27.6375C144.686 28.2124 145.581 28.5191 146.5 28.5047H187.235C188.154 28.5191 189.049 28.2124 189.765 27.6375C190.482 27.0626 190.975 26.2555 191.16 25.3556C191.183 25.2332 191.196 25.1105 191.21 24.9881C191.273 24.1003 191.667 23.2686 192.316 22.659C192.964 22.0494 193.819 21.7065 194.709 21.6987H206.298C208.847 21.6985 211.372 22.2004 213.727 23.1758C216.082 24.1513 218.222 25.5812 220.025 27.3838C221.827 29.1864 223.257 31.3265 224.233 33.6818C225.208 36.0371 225.71 38.5614 225.71 41.1107L225.71 41.1111Z" fill="white"/>
<path d="M105.53 74.564C105.289 74.5641 105.058 74.6598 104.888 74.83C104.718 75.0002 104.622 75.231 104.622 75.4716V82.7315C104.62 82.8522 104.642 82.9721 104.686 83.0842C104.731 83.1963 104.797 83.2984 104.882 83.3845C104.966 83.4707 105.067 83.5391 105.178 83.5858C105.29 83.6325 105.409 83.6566 105.53 83.6566C105.65 83.6566 105.77 83.6325 105.881 83.5858C105.992 83.5391 106.093 83.4707 106.178 83.3845C106.262 83.2984 106.328 83.1963 106.373 83.0842C106.418 82.9721 106.439 82.8522 106.437 82.7315V75.4713C106.437 75.2307 106.341 75.0001 106.171 74.83C106.001 74.6599 105.77 74.5642 105.53 74.564Z" fill="#090814"/>
<path d="M105.53 96.3447C105.289 96.3449 105.058 96.4406 104.888 96.6108C104.718 96.7809 104.622 97.0117 104.622 97.2524V111.319C104.62 111.44 104.642 111.56 104.686 111.672C104.731 111.784 104.797 111.886 104.882 111.972C104.966 112.058 105.067 112.127 105.178 112.173C105.29 112.22 105.409 112.244 105.53 112.244C105.65 112.244 105.77 112.22 105.881 112.173C105.992 112.127 106.093 112.058 106.178 111.972C106.262 111.886 106.328 111.784 106.373 111.672C106.418 111.56 106.439 111.44 106.437 111.319V97.2524C106.437 97.0118 106.341 96.7811 106.171 96.6109C106.001 96.4407 105.77 96.345 105.53 96.3447Z" fill="#090814"/>
<path d="M105.53 116.311C105.289 116.311 105.059 116.407 104.889 116.577C104.719 116.747 104.623 116.977 104.623 117.218V131.286C104.62 131.407 104.642 131.527 104.687 131.639C104.731 131.751 104.798 131.853 104.882 131.939C104.967 132.026 105.068 132.094 105.179 132.141C105.29 132.187 105.41 132.211 105.53 132.211C105.651 132.211 105.77 132.187 105.882 132.141C105.993 132.094 106.094 132.026 106.178 131.939C106.263 131.853 106.329 131.751 106.374 131.639C106.418 131.527 106.44 131.407 106.438 131.286V117.218C106.437 116.977 106.342 116.746 106.171 116.576C106.001 116.406 105.77 116.311 105.53 116.311Z" fill="#090814"/>
<path d="M138.778 24.877H121.288C121.231 24.877 121.185 24.9231 121.185 24.9801V27.0428C121.185 27.0998 121.231 27.1459 121.288 27.1459H138.778C138.835 27.1459 138.882 27.0998 138.882 27.0428V24.9801C138.882 24.9231 138.835 24.877 138.778 24.877Z" fill="#E6E6E6"/>
<path d="M197.576 27.1456C198.579 27.1456 199.391 26.333 199.391 25.3306C199.391 24.3282 198.579 23.5156 197.576 23.5156C196.574 23.5156 195.761 24.3282 195.761 25.3306C195.761 26.333 196.574 27.1456 197.576 27.1456Z" fill="#E6E6E6"/>
<path d="M202.568 27.1456C203.571 27.1456 204.383 26.333 204.383 25.3306C204.383 24.3282 203.571 23.5156 202.568 23.5156C201.566 23.5156 200.753 24.3282 200.753 25.3306C200.753 26.333 201.566 27.1456 202.568 27.1456Z" fill="#E6E6E6"/>
<path d="M207.559 27.1456C208.562 27.1456 209.374 26.333 209.374 25.3306C209.374 24.3282 208.562 23.5156 207.559 23.5156C206.557 23.5156 205.744 24.3282 205.744 25.3306C205.744 26.333 206.557 27.1456 207.559 27.1456Z" fill="#E6E6E6"/>
<path opacity="0.1" d="M158.544 124.59L144.319 148.718C142.367 152.028 144.622 156.227 148.459 156.429L178.116 157.991C182.211 158.207 184.885 153.759 182.773 150.243L167.342 124.554C165.344 121.227 160.515 121.247 158.544 124.59Z" fill="#263238"/>
<path d="M161.367 123.17L148.296 149.611C146.516 153.213 149.166 157.425 153.184 157.378L184.206 157.015C188.512 156.964 191.018 152.128 188.576 148.581L170.624 122.503C168.295 119.12 163.187 119.487 161.367 123.17Z" fill="#090814"/>
<path d="M153.594 155.118C152.465 155.131 151.402 154.573 150.749 153.624C150.097 152.676 149.99 151.536 150.466 150.574L163.569 124.066C164.045 123.105 165.002 122.523 166.13 122.509C167.258 122.496 168.322 123.055 168.974 124.003L186.971 150.147C187.624 151.095 187.73 152.236 187.255 153.197C186.779 154.159 185.822 154.741 184.694 154.754L153.594 155.118Z" fill="white"/>
<path d="M165.952 131.234L167.928 131.211C169.198 131.196 170.322 132.191 170.438 133.433L170.674 135.98C170.683 136.074 170.686 136.167 170.682 136.259L170.408 144.079C170.369 145.206 169.468 146.062 168.308 146.076C167.145 146.089 166.087 145.253 165.841 144.126L164.14 136.333C164.12 136.243 164.106 136.151 164.097 136.06L163.86 133.51C163.745 132.268 164.681 131.249 165.952 131.234ZM168.258 148.227L168.797 148.221C169.934 148.208 170.939 149.098 171.042 150.209C171.145 151.319 170.308 152.231 169.171 152.244L168.632 152.25C167.495 152.264 166.491 151.374 166.387 150.263C166.284 149.152 167.122 148.241 168.258 148.227Z" fill="#090814"/>
<path d="M141.413 171.338H140.384L142.257 166.017H143.447L145.323 171.338H144.294L142.873 167.108H142.831L141.413 171.338ZM141.446 169.252H144.253V170.026H141.446V169.252ZM147.602 171.416C147.204 171.416 146.861 171.329 146.576 171.154C146.292 170.979 146.072 170.737 145.918 170.429C145.766 170.119 145.69 169.762 145.69 169.358C145.69 168.953 145.768 168.595 145.923 168.285C146.079 167.973 146.299 167.731 146.583 167.558C146.869 167.383 147.207 167.295 147.597 167.295C147.921 167.295 148.207 167.355 148.457 167.475C148.708 167.592 148.908 167.76 149.057 167.976C149.206 168.191 149.291 168.442 149.312 168.73H148.413C148.376 168.537 148.29 168.377 148.153 168.249C148.018 168.119 147.837 168.054 147.61 168.054C147.418 168.054 147.249 168.106 147.103 168.21C146.958 168.312 146.844 168.459 146.763 168.652C146.683 168.844 146.643 169.074 146.643 169.343C146.643 169.615 146.683 169.849 146.763 170.044C146.842 170.238 146.954 170.388 147.098 170.494C147.243 170.598 147.414 170.65 147.61 170.65C147.748 170.65 147.872 170.624 147.981 170.572C148.092 170.518 148.185 170.441 148.259 170.341C148.334 170.24 148.385 170.118 148.413 169.974H149.312C149.289 170.257 149.206 170.507 149.062 170.725C148.919 170.942 148.723 171.111 148.475 171.234C148.227 171.356 147.936 171.416 147.602 171.416ZM151.825 171.416C151.427 171.416 151.085 171.329 150.799 171.154C150.515 170.979 150.295 170.737 150.141 170.429C149.989 170.119 149.913 169.762 149.913 169.358C149.913 168.953 149.991 168.595 150.147 168.285C150.302 167.973 150.522 167.731 150.807 167.558C151.092 167.383 151.43 167.295 151.82 167.295C152.144 167.295 152.431 167.355 152.68 167.475C152.931 167.592 153.131 167.76 153.28 167.976C153.429 168.191 153.514 168.442 153.535 168.73H152.636C152.599 168.537 152.513 168.377 152.376 168.249C152.241 168.119 152.06 168.054 151.833 168.054C151.641 168.054 151.472 168.106 151.326 168.21C151.181 168.312 151.067 168.459 150.986 168.652C150.906 168.844 150.866 169.074 150.866 169.343C150.866 169.615 150.906 169.849 150.986 170.044C151.065 170.238 151.177 170.388 151.321 170.494C151.467 170.598 151.637 170.65 151.833 170.65C151.971 170.65 152.095 170.624 152.204 170.572C152.315 170.518 152.408 170.441 152.482 170.341C152.557 170.24 152.608 170.118 152.636 169.974H153.535C153.512 170.257 153.429 170.507 153.285 170.725C153.142 170.942 152.946 171.111 152.698 171.234C152.45 171.356 152.159 171.416 151.825 171.416ZM156.074 171.416C155.674 171.416 155.328 171.333 155.037 171.167C154.748 170.999 154.525 170.762 154.37 170.455C154.214 170.147 154.136 169.784 154.136 169.366C154.136 168.956 154.214 168.595 154.37 168.285C154.527 167.973 154.747 167.731 155.03 167.558C155.312 167.383 155.644 167.295 156.025 167.295C156.271 167.295 156.503 167.335 156.721 167.415C156.941 167.493 157.135 167.614 157.303 167.779C157.473 167.943 157.606 168.153 157.703 168.407C157.8 168.66 157.849 168.962 157.849 169.312V169.6H154.577V168.966H156.947C156.945 168.786 156.906 168.626 156.83 168.485C156.754 168.343 156.648 168.232 156.511 168.15C156.376 168.069 156.218 168.028 156.038 168.028C155.845 168.028 155.677 168.075 155.531 168.168C155.386 168.26 155.272 168.381 155.191 168.532C155.111 168.681 155.07 168.845 155.069 169.023V169.577C155.069 169.809 155.111 170.008 155.196 170.174C155.281 170.339 155.399 170.465 155.552 170.554C155.704 170.64 155.883 170.684 156.087 170.684C156.224 170.684 156.348 170.665 156.459 170.626C156.57 170.587 156.666 170.529 156.747 170.452C156.829 170.376 156.89 170.282 156.932 170.169L157.81 170.268C157.754 170.5 157.649 170.703 157.493 170.876C157.339 171.047 157.141 171.181 156.9 171.276C156.66 171.37 156.384 171.416 156.074 171.416ZM161.799 168.402L160.942 168.496C160.917 168.409 160.875 168.328 160.814 168.251C160.755 168.175 160.676 168.114 160.575 168.067C160.475 168.02 160.352 167.997 160.206 167.997C160.011 167.997 159.846 168.039 159.713 168.124C159.581 168.209 159.516 168.319 159.518 168.454C159.516 168.57 159.558 168.665 159.645 168.737C159.733 168.81 159.879 168.87 160.082 168.917L160.762 169.062C161.14 169.144 161.421 169.273 161.604 169.449C161.79 169.626 161.883 169.857 161.885 170.143C161.883 170.394 161.809 170.616 161.664 170.808C161.52 170.999 161.32 171.148 161.064 171.255C160.807 171.363 160.513 171.416 160.18 171.416C159.692 171.416 159.299 171.314 159.001 171.11C158.703 170.904 158.525 170.617 158.468 170.25L159.385 170.161C159.427 170.341 159.515 170.477 159.65 170.569C159.785 170.661 159.961 170.707 160.178 170.707C160.401 170.707 160.58 170.661 160.716 170.569C160.852 170.477 160.921 170.364 160.921 170.229C160.921 170.115 160.877 170.02 160.788 169.946C160.702 169.871 160.567 169.814 160.383 169.774L159.702 169.631C159.319 169.552 159.036 169.417 158.852 169.228C158.669 169.038 158.578 168.797 158.58 168.506C158.578 168.26 158.645 168.047 158.78 167.867C158.917 167.685 159.106 167.545 159.349 167.446C159.593 167.345 159.875 167.295 160.193 167.295C160.661 167.295 161.029 167.395 161.298 167.594C161.568 167.793 161.735 168.063 161.799 168.402ZM165.815 168.402L164.957 168.496C164.933 168.409 164.891 168.328 164.83 168.251C164.771 168.175 164.692 168.114 164.591 168.067C164.491 168.02 164.368 167.997 164.222 167.997C164.026 167.997 163.862 168.039 163.728 168.124C163.597 168.209 163.532 168.319 163.534 168.454C163.532 168.57 163.574 168.665 163.661 168.737C163.749 168.81 163.895 168.87 164.097 168.917L164.778 169.062C165.156 169.144 165.436 169.273 165.62 169.449C165.805 169.626 165.899 169.857 165.901 170.143C165.899 170.394 165.825 170.616 165.68 170.808C165.536 170.999 165.336 171.148 165.08 171.255C164.823 171.363 164.529 171.416 164.196 171.416C163.708 171.416 163.314 171.314 163.016 171.11C162.718 170.904 162.541 170.617 162.484 170.25L163.401 170.161C163.443 170.341 163.531 170.477 163.666 170.569C163.801 170.661 163.977 170.707 164.194 170.707C164.417 170.707 164.596 170.661 164.731 170.569C164.868 170.477 164.937 170.364 164.937 170.229C164.937 170.115 164.892 170.02 164.804 169.946C164.718 169.871 164.582 169.814 164.399 169.774L163.718 169.631C163.335 169.552 163.052 169.417 162.868 169.228C162.685 169.038 162.594 168.797 162.595 168.506C162.594 168.26 162.66 168.047 162.796 167.867C162.932 167.685 163.122 167.545 163.365 167.446C163.609 167.345 163.89 167.295 164.209 167.295C164.677 167.295 165.045 167.395 165.313 167.594C165.584 167.793 165.751 168.063 165.815 168.402ZM170.336 171.338H168.533V166.017H170.373C170.901 166.017 171.355 166.123 171.734 166.336C172.115 166.548 172.408 166.852 172.612 167.248C172.817 167.645 172.919 168.12 172.919 168.672C172.919 169.227 172.816 169.703 172.61 170.102C172.405 170.5 172.11 170.806 171.724 171.019C171.339 171.232 170.877 171.338 170.336 171.338ZM169.497 170.504H170.289C170.66 170.504 170.969 170.437 171.217 170.302C171.465 170.165 171.651 169.961 171.776 169.691C171.9 169.419 171.963 169.079 171.963 168.672C171.963 168.265 171.9 167.928 171.776 167.659C171.651 167.389 171.466 167.187 171.222 167.054C170.98 166.918 170.678 166.851 170.318 166.851H169.497V170.504ZM175.56 171.416C175.16 171.416 174.815 171.333 174.523 171.167C174.234 170.999 174.012 170.762 173.856 170.455C173.7 170.147 173.622 169.784 173.622 169.366C173.622 168.956 173.7 168.595 173.856 168.285C174.013 167.973 174.233 167.731 174.516 167.558C174.798 167.383 175.13 167.295 175.511 167.295C175.757 167.295 175.989 167.335 176.207 167.415C176.427 167.493 176.621 167.614 176.789 167.779C176.959 167.943 177.092 168.153 177.189 168.407C177.286 168.66 177.335 168.962 177.335 169.312V169.6H174.064V168.966H176.433C176.432 168.786 176.393 168.626 176.316 168.485C176.24 168.343 176.134 168.232 175.997 168.15C175.862 168.069 175.704 168.028 175.524 168.028C175.332 168.028 175.163 168.075 175.017 168.168C174.872 168.26 174.758 168.381 174.677 168.532C174.597 168.681 174.556 168.845 174.555 169.023V169.577C174.555 169.809 174.597 170.008 174.682 170.174C174.767 170.339 174.886 170.465 175.038 170.554C175.19 170.64 175.369 170.684 175.573 170.684C175.71 170.684 175.834 170.665 175.945 170.626C176.056 170.587 176.152 170.529 176.233 170.452C176.315 170.376 176.376 170.282 176.418 170.169L177.296 170.268C177.241 170.5 177.135 170.703 176.979 170.876C176.825 171.047 176.627 171.181 176.387 171.276C176.146 171.37 175.87 171.416 175.56 171.416ZM179.071 169V171.338H178.131V167.347H179.03V168.025H179.077C179.168 167.802 179.315 167.624 179.516 167.493C179.718 167.361 179.969 167.295 180.267 167.295C180.542 167.295 180.782 167.354 180.986 167.472C181.193 167.59 181.352 167.76 181.464 167.984C181.579 168.207 181.635 168.478 181.633 168.797V171.338H180.693V168.943C180.693 168.676 180.623 168.467 180.485 168.316C180.348 168.166 180.158 168.09 179.916 168.09C179.751 168.09 179.605 168.127 179.477 168.199C179.35 168.271 179.251 168.374 179.178 168.509C179.107 168.644 179.071 168.808 179.071 169ZM182.59 171.338V167.347H183.53V171.338H182.59ZM183.063 166.781C182.914 166.781 182.785 166.731 182.678 166.633C182.571 166.532 182.517 166.412 182.517 166.271C182.517 166.129 182.571 166.009 182.678 165.91C182.785 165.81 182.914 165.76 183.063 165.76C183.213 165.76 183.341 165.81 183.447 165.91C183.554 166.009 183.608 166.129 183.608 166.271C183.608 166.412 183.554 166.532 183.447 166.633C183.341 166.731 183.213 166.781 183.063 166.781ZM186.264 171.416C185.864 171.416 185.519 171.333 185.228 171.167C184.938 170.999 184.716 170.762 184.56 170.455C184.404 170.147 184.326 169.784 184.326 169.366C184.326 168.956 184.404 168.595 184.56 168.285C184.717 167.973 184.937 167.731 185.22 167.558C185.502 167.383 185.834 167.295 186.215 167.295C186.461 167.295 186.693 167.335 186.911 167.415C187.131 167.493 187.325 167.614 187.493 167.779C187.663 167.943 187.797 168.153 187.894 168.407C187.991 168.66 188.039 168.962 188.039 169.312V169.6H184.768V168.966H187.137C187.136 168.786 187.097 168.626 187.021 168.485C186.944 168.343 186.838 168.232 186.701 168.15C186.566 168.069 186.408 168.028 186.228 168.028C186.036 168.028 185.867 168.075 185.721 168.168C185.576 168.26 185.462 168.381 185.381 168.532C185.301 168.681 185.261 168.845 185.259 169.023V169.577C185.259 169.809 185.301 170.008 185.386 170.174C185.471 170.339 185.59 170.465 185.742 170.554C185.895 170.64 186.073 170.684 186.277 170.684C186.414 170.684 186.538 170.665 186.649 170.626C186.76 170.587 186.856 170.529 186.937 170.452C187.019 170.376 187.08 170.282 187.122 170.169L188 170.268C187.945 170.5 187.839 170.703 187.683 170.876C187.529 171.047 187.331 171.181 187.091 171.276C186.85 171.37 186.574 171.416 186.264 171.416ZM190.316 171.409C190.002 171.409 189.722 171.328 189.474 171.167C189.226 171.006 189.031 170.772 188.887 170.465C188.743 170.159 188.671 169.786 188.671 169.348C188.671 168.905 188.744 168.53 188.889 168.225C189.037 167.919 189.235 167.688 189.484 167.532C189.734 167.374 190.012 167.295 190.319 167.295C190.552 167.295 190.745 167.335 190.895 167.415C191.046 167.493 191.166 167.587 191.254 167.698C191.342 167.807 191.411 167.91 191.459 168.007H191.498V166.017H192.441V171.338H191.516V170.71H191.459C191.411 170.807 191.341 170.91 191.249 171.019C191.157 171.126 191.036 171.218 190.885 171.294C190.734 171.37 190.545 171.409 190.316 171.409ZM190.578 170.637C190.778 170.637 190.947 170.583 191.088 170.476C191.228 170.367 191.335 170.215 191.407 170.021C191.48 169.827 191.516 169.601 191.516 169.343C191.516 169.085 191.48 168.86 191.407 168.67C191.336 168.479 191.231 168.331 191.09 168.225C190.952 168.12 190.781 168.067 190.578 168.067C190.369 168.067 190.194 168.122 190.054 168.231C189.913 168.34 189.808 168.491 189.737 168.683C189.666 168.875 189.63 169.095 189.63 169.343C189.63 169.592 189.666 169.815 189.737 170.011C189.809 170.205 189.916 170.358 190.056 170.471C190.198 170.581 190.372 170.637 190.578 170.637Z" fill="#090814"/>
</g>
<defs>
<clipPath id="clip0_12_227">
<rect width="266" height="252.095" fill="white" transform="translate(82 16)"/>
</clipPath>
</defs>
</svg>
